<svg version="1.2" xmlns="http://www.w3.org/2000/svg" viewBox="0 0 1000 374" width="1000" height="374">
	<style>
		.s0 { fill: #221f20 } 
		.s1 { fill: #ffc525 } 
	</style>
	<g id="Background">
		<path id="Path 0" fill-rule="evenodd" class="s0" d="m712.6 370.58c0 0 18.79-72.89 41.38-159.48 22.58-86.59 41.58-159.49 43.35-166.56l8.21-0.44c4.51-0.24 18.19-0.67 30.41-0.96 12.22-0.3 29.53-0.58 38.45-0.64 10.44-0.07 16.14-0.02 16.14-0.02 0 0.38-2.81 12.28-6.36 25.72-3.55 13.44-12.33 46.76-19.53 74.02-7.19 27.26-17.49 66.33-22.89 86.83-5.4 20.5-11.69 44.34-13.97 52.99-2.29 8.65-4.85 18.42-4.85 18.42l173.1 0.04-63.7 70.06zm-10.38-321.04l1.4 1.34c0.72 0.78 2.61 4.19 4.2 7.58 1.59 3.38 3.68 8.77 4.64 11.96 0.97 3.2 2.3 8.58 2.96 11.97 0.87 4.45 1.21 9.47 1.21 18.12 0 8.62-0.34 13.69-1.2 18.12-0.66 3.38-2.15 9.23-3.3 12.99-1.14 3.76-3.76 10.38-5.81 14.7-2.05 4.32-5.79 10.94-8.31 14.7-2.51 3.76-7.49 9.88-11.06 13.6-3.58 3.72-8.96 8.67-11.97 11.02-3.01 2.34-7.55 5.53-10.08 7.08-2.54 1.55-6.85 3.95-9.57 5.31-2.73 1.37-8.49 3.86-12.82 5.55-4.33 1.68-7.94 3.1-8.04 3.15-0.09 0.06 1.8 5.64 4.21 12.4 2.41 6.77 14.44 40.31 26.73 74.53 12.29 34.22 23.55 65.53 27.68 76.92h-93.64l-0.65-2.22c-0.36-1.23-6.53-21.61-13.71-45.3-7.19-23.69-15.69-51.69-18.89-62.22-3.2-10.53-7.56-24.94-13.57-44.9l-21.02-0.11c-11.55-0.07-21.01-0.11-21.01-0.11 0 0-2.89 11.07-6.42 24.61-3.54 13.54-8.76 33.54-11.6 44.44-2.84 10.91-8.73 33.52-13.09 50.26-4.36 16.73-8.22 31.58-9.23 35.55h-44.43-44.76l3.13-12.82c1.54-5.92 5.85-22.46 9.58-36.75 3.72-14.29 9.22-35.37 12.21-46.84 2.99-11.46 10.03-38.54 15.67-60.16 5.63-21.62 15.19-58.39 21.25-81.71 6.07-23.31 11.62-44.78 12.36-47.69 0.73-2.91 1.55-5.3 1.83-5.3 0.28 0 10.51-1.68 22.73-3.72 12.22-2.04 29.6-4.8 38.62-6.12 9.02-1.32 24.4-3.48 34.18-4.8 9.77-1.32 31.61-3.94 48.53-5.82 16.91-1.88 39.68-4.21 50.58-5.18 10.9-0.98 26.74-2.33 35.2-3zm-160.11 45.94c-3.53 13.48-9.93 37.89-14.21 54.25-4.29 16.36-9.32 35.51-11.18 42.57-1.87 7.04-3.39 13.12-3.39 13.5 0 0.38 11.4-10.48 25.33-24.1l25.32-24.77c17.17 0.04 25.16-1.23 28.29-2.02 2.64-0.66 7.71-2.61 11.28-4.33 5.38-2.59 7.44-4.07 12-8.66 3.7-3.7 6.33-7.1 8-10.31 1.37-2.63 3.13-7.24 3.9-10.25 0.82-3.22 1.4-7.59 1.39-10.6-0.01-2.82-0.44-7.13-0.95-9.57-0.52-2.45-1.94-6.45-3.16-8.89-1.39-2.76-3.95-6.15-6.75-8.95-3.12-3.1-6.11-5.28-9.64-7-2.83-1.38-7.28-3-9.91-3.6-3.69-0.86-10.02-1.47-27.4-1.73l-22.5-0.05zm-184.29 140.06c6.21 70.32 11.45 129.49 11.97 135.05h-89.55l-0.34-2.92c-0.18-1.59-1.57-17.67-3.08-35.72-1.5-18.06-2.66-34.53-2.66-34.53l-128.93-0.01-45.1 73.19-48.36-0.01h-48.8c0 0 5.24-8.35 10.45-16.44 5.21-8.1 31-48.32 105.17-164.02l10.25-5.99c5.64-3.3 17.33-9.55 25.97-13.9 8.65-4.35 20.5-10.01 26.32-12.58 5.83-2.57 16.75-7.14 24.27-10.16 7.51-3.01 19.05-7.42 25.63-9.77 6.58-2.36 12.03-4.17 12.13-4.01 0.1 0.16-13.13 22.34-29.39 49.29-16.26 26.95-30.09 49.82-30.09 49.82l43.19-0.01 43.23 0.01c0 0-1.79-25.46-3.85-54.04-2.05-28.58-3.67-51.97-3.59-51.98 0.08-0.01 4.15-1.3 9.04-2.88 4.88-1.57 15.81-4.86 24.26-7.3 8.46-2.45 22.76-6.44 31.79-8.87 9.02-2.42 17.87-4.81 18.34-4.84 0 0 5.51 62.3 11.73 132.62z"/>
		<path id="Path 1" class="s1" d="m234.09 10.09c-2.1 3.28-7.88 12.3-12.84 20.04-4.96 7.73-11.66 18.19-14.89 23.24-3.24 5.05-12.49 19.5-20.57 32.1-8.08 12.6-20.74 32.36-28.13 43.93-7.39 11.56-13.36 21.14-13.26 21.28 0.09 0.14 4.31-1.8 9.39-4.31 5.08-2.52 14.15-6.77 20.17-9.44 6.01-2.67 17.09-7.31 24.6-10.31 7.52-3.01 19.36-7.54 26.32-10.07 6.95-2.53 19.1-6.74 27-9.35 7.89-2.6 28.71-9.06 28.71-9.06l30.76-8.8c0 0 19.78-5.32 23.92-6.33 4.14-1.01 7.75-2.02 8.04-2.25 0.29-0.23-0.41-11.04-1.54-24.01-1.13-12.97-2.53-28.82-3.1-35.21-0.58-6.4-1.19-12.93-1.37-14.53l-0.32-2.91h-99.06zm241.58-3.08c-0.44 1.6-3.48 13.22-6.77 25.82-3.29 12.6-5.94 22.96-5.89 23.02 0.04 0.07 4.53-0.62 9.99-1.53 5.45-0.92 16.68-2.74 24.95-4.04 8.27-1.31 22.57-3.44 31.78-4.74 9.21-1.3 24.28-3.3 33.49-4.43 9.21-1.13 22.13-2.69 28.71-3.46 6.58-0.77 18.27-2.03 25.98-2.8 7.7-0.77 22.01-2.13 31.78-3.04 9.77-0.9 20.85-1.86 24.61-2.12 3.76-0.28 8.4-0.75 9.35-0.84 2.21-0.22-0.28-1.66-1.84-2.81-2.61-1.95-9.45-6.15-12.64-7.83-3.2-1.68-8.19-4-11.11-5.16-2.91-1.16-8.29-2.88-11.96-3.83-3.66-0.95-9.59-2.18-13.16-2.74-3.57-0.55-9.42-1.28-12.98-1.62-3.58-0.33-37.32-0.65-74.99-0.69l-68.5-0.07zm331.63-0.34c-0.36 1.41-1.29 5.1-2.07 8.21-0.78 3.1-1.67 7.36-1.67 7.36 0 0 4.17-0.12 18.88-0.53 10.25-0.28 31.18-0.74 46.51-1.02l27.88-0.52q1.63-6.34 2.72-10.42c0.73-2.73 1.34-5.11 1.34-5.3 0-0.19-20.91-0.34-46.46-0.34h-46.46z"/>
	</g>
</svg>
