<?xml version="1.0" encoding="UTF-8"?>
<svg id="Layer_1" xmlns="http://www.w3.org/2000/svg" version="1.1" viewBox="0 0 2881 726">
  <defs>
    <style>
      .st0 {
        fill: #30bf2c;
      }

      .st1 {
        fill: #ffb000;
      }

      .st2 {
        fill: #0074ff;
      }

      .st3 {
        fill: #020079;
      }
    </style>
  </defs>
  <g>
    <path class="st3" d="M.2,153.2h397.6v102.8H119.8v122.1h272.1v102.8H119.8v130.6h278v103.6H.2V153.2Z"/>
    <path class="st3" d="M546.7,337.7v377.4h-119.6V153.2h123l260.3,363.9V153.2h119.6v561.9h-115.4l-267.9-377.4Z"/>
    <path class="st3" d="M1722,501.1c60.7-14.3,123-67.4,123-166.8s-71.6-181.1-188.7-181.1h-262.8v259.2h119.6l-119.6,302.7h119.6v-201.3h87.6l110.4,201.3h137.3l-126.4-214ZM1638.6,411h-125.5v-155h125.5c48,0,84.2,30.3,84.2,77.5s-36.2,77.5-84.2,77.5Z"/>
    <path class="st3" d="M2146.8,143.9c116.2,0,189.5,56.4,232.5,123l-99.4,53.9c-26.1-39.6-74.1-70.8-133.1-70.8-101.9,0-176.1,78.3-176.1,184.5s74.1,184.5,176.1,184.5,96.9-21.1,121.3-43v-68.2h-149.9v-102.8h267.9v214.8c-57.3,64-137.3,106.1-239.2,106.1-164.3,0-299-114.6-299-291.5s134.8-290.6,299-290.6Z"/>
    <path class="st3" d="M2545.6,485.1l-216.5-331.9h136.5l139.8,225.8,138.1-225.8h136.5l-214.8,331.9v230h-119.6v-230Z"/>
  </g>
  <g>
    <path class="st3" d="M2756.8,679.8h-12.2v-7.8h33.4v7.8h-12.2v34h-9v-34Z"/>
    <path class="st3" d="M2817.3,683.7l-11.8,30.1h-3.9l-11.8-30.1v30.1h-8.9v-41.8h12.5l10.2,26.1,10.2-26.1h12.5v41.8h-9v-30.1Z"/>
  </g>
  <g>
    <path class="st3" d="M810.8,1h21.4v58.8c0,13.8,7.6,23.3,23,23.3s22.7-9.5,22.7-23.3V1h21.4v59.4c0,24.6-14.1,41.4-44.1,41.4s-44.4-16.9-44.4-41.2V1Z"/>
    <path class="st3" d="M917.4,77.5c6.5,0,12,5.5,12,12s-5.5,12-12,12-12-5.5-12-12,5.5-12,12-12Z"/>
    <path class="st3" d="M944.7,70c7,7.3,17.8,13.4,31.5,13.4s17.2-5.5,17.2-11.1-8.6-9.9-20-12.6c-16.2-3.7-36.9-8.2-36.9-30.3s14.2-29.8,37.5-29.8,28.8,4.7,38.6,13.8l-11.7,15.4c-8-7.4-18.7-10.8-28.3-10.8s-14.5,4.2-14.5,10.1,8.3,8.8,19.7,11.4c16.3,3.7,37.1,8.6,37.1,30.6s-12.9,31.8-39.6,31.8-32.6-6.4-42-15.7l11.6-16Z"/>
    <path class="st3" d="M1031.9,77.5c6.5,0,12,5.5,12,12s-5.5,12-12,12-12-5.5-12-12,5.5-12,12-12Z"/>
    <path class="st3" d="M1091.2,1h39c31,0,52.5,19.7,52.5,49.6s-21.5,49.4-52.5,49.4h-39V1ZM1130.2,81.4c19.6,0,31-14.1,31-30.9s-10.7-31-31-31h-18v61.9h18Z"/>
    <path class="st3" d="M1226.6,26.5c21.4,0,35.9,16,35.9,39.5v4.2h-53.3c1.2,9.1,8.5,16.6,20.6,16.6s14.5-2.7,19.1-7.1l8.3,12.2c-7.3,6.7-18.4,9.9-29.5,9.9-21.8,0-38.3-14.7-38.3-37.7s15.3-37.5,37.1-37.5ZM1208.9,57.3h35.3c-.4-6.8-5.2-15.9-17.7-15.9s-16.8,8.8-17.7,15.9Z"/>
    <path class="st3" d="M1272.9,127.2V28.3h18.8v9.1c5.5-7,13.4-10.8,22.1-10.8,18.4,0,31.8,13.7,31.8,37.5s-13.4,37.7-31.8,37.7-16.3-3.6-22.1-11v36.5h-18.8ZM1307.9,43.2c-6.1,0-13.1,3.6-16.2,8.2v25.4c3.1,4.5,10.1,8.2,16.2,8.2,10.8,0,18.1-8.5,18.1-20.9s-7.3-20.8-18.1-20.8Z"/>
    <path class="st3" d="M1404.5,92.5c-4.9,5.8-13.4,9.2-22.7,9.2s-24.9-7.7-24.9-23.7,13.5-22.9,24.9-22.9,18,3,22.7,8.8v-9.9c0-7.3-6.2-12-15.7-12s-14.8,2.8-20.9,8.5l-7.1-12.6c8.8-7.7,20-11.3,31.3-11.3,16.3,0,31.3,6.5,31.3,27.2v46.3h-18.8v-7.4ZM1404.5,73.8c-3.1-4.2-9.1-6.2-15.1-6.2s-13.5,4-13.5,10.8,6.1,10.5,13.5,10.5,12-2.1,15.1-6.2v-8.9Z"/>
    <path class="st3" d="M1439.8,28.3h18.8v9.8c5-6.4,13.9-11.4,22.9-11.4v18.4c-1.3-.3-3.1-.4-5.2-.4-6.2,0-14.5,3.4-17.7,8v47.3h-18.8V28.3Z"/>
    <path class="st3" d="M1502.6,82.1v-37.4h-11.9v-16.5h11.9V8.7h19v19.6h14.5v16.5h-14.5v32.3c0,4.5,2.4,7.9,6.5,7.9s5.5-1,6.5-2.1l4,14.2c-2.8,2.5-7.9,4.6-15.7,4.6-13.2,0-20.3-6.8-20.3-19.6Z"/>
    <path class="st3" d="M1642.7,54.7c0-6.7-3-11.4-10.7-11.4s-12.2,4.5-14.8,8.3v48.4h-19v-45.3c0-6.7-3-11.4-10.7-11.4s-12,4.5-14.8,8.5v48.2h-18.8V28.3h18.8v9.3c3-4.3,12.5-11.1,23.4-11.1s17.2,4.9,19.9,13.1c4.2-6.5,13.7-13.1,24.6-13.1s21.1,7,21.1,21.7v51.8h-19v-45.3Z"/>
    <path class="st3" d="M1710.5,26.5c21.4,0,35.9,16,35.9,39.5v4.2h-53.3c1.2,9.1,8.5,16.6,20.6,16.6s14.5-2.7,19.1-7.1l8.3,12.2c-7.3,6.7-18.4,9.9-29.5,9.9-21.8,0-38.3-14.7-38.3-37.7s15.3-37.5,37.1-37.5ZM1692.8,57.3h35.3c-.4-6.8-5.2-15.9-17.7-15.9s-16.8,8.8-17.7,15.9Z"/>
    <path class="st3" d="M1810.2,56.6c0-9.9-5.2-13.4-13.2-13.4s-13.2,4.2-16.3,8.5v48.2h-18.8V28.3h18.8v9.3c4.6-5.5,13.4-11.1,25.1-11.1s23.3,8.9,23.3,22.9v50.6h-18.8v-43.3Z"/>
    <path class="st3" d="M1855.2,82.1v-37.4h-11.9v-16.5h11.9V8.7h19v19.6h14.5v16.5h-14.5v32.3c0,4.5,2.4,7.9,6.5,7.9s5.5-1,6.5-2.1l4,14.2c-2.8,2.5-7.9,4.6-15.7,4.6-13.2,0-20.3-6.8-20.3-19.6Z"/>
    <path class="st3" d="M1937.6,64c0-20.3,14.2-37.5,37.8-37.5s38,17.2,38,37.5-14.2,37.7-38,37.7-37.8-17.2-37.8-37.7ZM1993.8,64c0-11.1-6.7-20.8-18.4-20.8s-18.2,9.6-18.2,20.8,6.5,20.9,18.2,20.9,18.4-9.6,18.4-20.9Z"/>
    <path class="st3" d="M2032.3,44.7h-11.9v-16.5h11.9v-3.9c0-15.6,10.1-24.9,24.2-24.9s10.2,1.2,13.7,3l-3.9,13.4c-1.6-1-3.9-1.5-6.1-1.5-5.3,0-8.9,3.6-8.9,10.4v3.6h14.5v16.5h-14.5v55.2h-19v-55.2Z"/>
  </g>
  <polygon class="st2" points="1329.9 317.6 964 317.6 964 152.2 1394.7 152.2 1329.9 317.6"/>
  <polygon class="st0" points="1394.7 714.7 964 714.7 964 549.3 1394.7 549.3 1394.7 714.7"/>
  <polygon class="st1" points="1251.1 517.7 964 517.7 964 352.3 1316.2 352.3 1251.1 517.7"/>
</svg>
