<svg height="60" viewBox="0 0 164.797 60" width="164.797" xmlns="http://www.w3.org/2000/svg"><path d="m419.7 306a20.759 20.759 0 0 0 -7.592 1.438 20.756 20.756 0 0 0 -7.594-1.438c-12.481 0-23.752 11.941-23.752 28.324a31.348 31.348 0 1 0 62.693 0c0-16.383-11.272-28.324-23.755-28.324m-7.592 9.727a13.138 13.138 0 0 1 5.582 10.373c0 3.471-2.263 6.2-5.582 6.2s-5.583-2.731-5.583-6.2a13.141 13.141 0 0 1 5.583-10.373m0 42.471a23.767 23.767 0 0 1 -23.642-24.03c0-12.327 8.794-20.747 15.7-20.434a18.588 18.588 0 0 0 -5.258 12.761 13.2 13.2 0 1 0 26.391 0 18.6 18.6 0 0 0 -5.257-12.761c6.91-.313 15.7 8.108 15.7 20.434a23.767 23.767 0 0 1 -23.641 24.03" fill="#0072bc" transform="translate(-380.762 -305.998)"/><path d="m519.073 327.319v6.268h3.463v11.536l-9.3-17.8h-10.724v6.268h3.458v19.191h-3.458v6.264h14.188v-6.264h-3.461v-11.53l9.3 17.794h7.261v-25.459h3.464v-6.268z" transform="translate(-427.311 -313.995)"/><path d="m583.105 339.5v-12.181h-27.283v12.181h6.194v-5.916h3.34v19.191h-4.528v6.264h17.272v-6.264h-4.524v-19.188h3.34v5.913z" transform="translate(-447.691 -313.995)"/><path d="m630.676 339.5v-12.181h-27.282v12.181h6.194v-5.916h3.334v19.191h-4.522v6.264h17.282v-6.264h-4.529v-19.188h3.335v5.913z" transform="translate(-465.879 -313.995)"/></svg>
